<?xml version="1.0" standalone="no"?><svg xmlns:xlink="http://www.w3.org/1999/xlink" xmlns="http://www.w3.org/2000/svg" viewBox="0 0 1000 666.6666666666666" preserveAspectRatio="xMaxYMax slice"><g transform="scale(1.3031013812874641)"><rect x="0" y="0" width="767.4000000000001" height="511.6" fill="#ffffff"/><path d="M 383.7 127.9 A 127.9 127.9 0 0 1  511.6 0 L 383.7 127.9 A 127.9 127.9 0 0 0 511.6 0" fill="#ff4d77"/><path d="M 511.6 127.9 A 127.9 127.9 0 0 1  639.5 0 L 511.6 127.9 A 127.9 127.9 0 0 0 639.5 0" fill="#ff809e"/><rect x="127.9" y="127.9" width="127.9" height="127.9" fill="#ffffff"/><path d="M 127.9 127.9 A 63.95 63.95 0 0 1  191.85000000000002 191.85000000000002 L 127.9 127.9 A 63.95 63.95 0 0 0 191.85000000000002 191.85000000000002" fill="#ffecf1"/><path d="M 127.9 191.85 A 63.95 63.95 0 0 1  191.85000000000002 255.8 L 127.9 191.85 A 63.95 63.95 0 0 0 191.85000000000002 255.8" fill="#ffc3d2"/><path d="M 191.85 191.85 A 63.95 63.95 0 0 1  255.8 255.8 L 191.85 191.85 A 63.95 63.95 0 0 0 255.8 255.8" fill="#95a7f1"/><rect x="639.5" y="127.9" width="127.9" height="127.9" fill="#ffffff"/><path d="M 639.5 191.85000000000002 A 63.95 63.95 0 0 1  703.45 127.9 L 639.5 191.85000000000002 A 63.95 63.95 0 0 0 703.45 127.9" fill="#d3daf9"/><path d="M 703.45 191.85 A 63.95 63.95 0 0 1  767.4000000000001 255.8 L 703.45 191.85 A 63.95 63.95 0 0 0 767.4000000000001 255.8" fill="#ff3666"/><rect x="383.70000000000005" y="255.8" width="127.9" height="127.9" fill="#ffffff"/><path d="M 447.65 319.75 A 63.95 63.95 0 0 1  511.59999999999997 255.8 L 447.65 319.75 A 63.95 63.95 0 0 0 511.59999999999997 255.8" fill="#aebcf5"/><rect x="127.9" y="383.70000000000005" width="127.9" height="127.9" fill="#ffffff"/><rect x="383.70000000000005" y="383.70000000000005" width="127.9" height="127.9" fill="#ffffff"/><path d="M 511.6 383.7 A 127.9 127.9 0 0 1  639.5 511.6 L 511.6 383.7 A 127.9 127.9 0 0 0 639.5 511.6" fill="#ff4d77"/><path d="M 639.5 383.7 A 127.9 127.9 0 0 1  767.4 511.6 L 639.5 383.7 A 127.9 127.9 0 0 0 767.4 511.6" fill="#c5cff8"/></g></svg>