<?xml version="1.0" encoding="UTF-8"?>
<svg xmlns="http://www.w3.org/2000/svg" xmlns:xlink="http://www.w3.org/1999/xlink" viewBox="0 0 48 48" width="48px" height="48px">
<g id="surface24484153">
<path style=" stroke:none;fill-rule:nonzero;fill:rgb(30.588236%,47.843137%,70.980394%);fill-opacity:1;" d="M 24 34.679688 C 10.316406 34.679688 0 30.203125 0 24 C 0 17.796875 10.316406 13.199219 24 13.199219 C 37.683594 13.199219 48 17.796875 48 24 C 48 30.203125 37.683594 34.679688 24 34.679688 Z M 24 16.71875 C 12.324219 16.71875 3.449219 20.636719 3.449219 24.074219 C 3.449219 27.511719 12.324219 31.28125 24 31.28125 C 35.675781 31.28125 44.550781 27.363281 44.550781 23.925781 C 44.550781 20.488281 35.675781 16.71875 24 16.71875 Z M 24 16.71875 "/>
<path style=" stroke:none;fill-rule:nonzero;fill:rgb(30.588236%,47.843137%,70.980394%);fill-opacity:1;" d="M 14.882812 45.601562 C 13.765625 45.601562 12.746094 45.339844 11.847656 44.828125 C 10.386719 43.992188 9.335938 42.515625 8.808594 40.554688 C 7.433594 35.417969 9.652344 26.777344 14.464844 18.542969 C 20.113281 8.886719 27.609375 2.402344 33.117188 2.402344 C 34.234375 2.402344 35.253906 2.664062 36.152344 3.175781 C 37.613281 4.007812 38.664062 5.484375 39.1875 7.445312 C 40.566406 12.582031 38.34375 21.222656 33.53125 29.457031 C 27.890625 39.113281 20.394531 45.601562 14.882812 45.601562 Z M 33.117188 6.003906 C 29.652344 6.003906 23.027344 11.035156 17.574219 20.359375 C 12.625 28.828125 11.175781 35.851562 12.289062 39.625 C 12.589844 40.644531 13.015625 41.347656 13.632812 41.703125 C 16.46875 43.320312 24.207031 38.28125 30.421875 27.640625 C 35.375 19.171875 36.976562 12.300781 35.710938 8.375 C 35.386719 7.367188 34.984375 6.652344 34.367188 6.300781 C 34.015625 6.101562 33.605469 6.003906 33.117188 6.003906 Z M 33.117188 6.003906 "/>
<path style=" stroke:none;fill-rule:nonzero;fill:rgb(30.588236%,47.843137%,70.980394%);fill-opacity:1;" d="M 33.117188 45.597656 C 27.601562 45.59375 20.105469 39.109375 14.464844 29.457031 C 9.652344 21.222656 7.433594 12.582031 8.808594 7.445312 C 9.335938 5.484375 10.386719 4.007812 11.847656 3.171875 C 12.746094 2.660156 13.765625 2.398438 14.878906 2.398438 C 20.394531 2.398438 27.886719 8.886719 33.53125 18.542969 C 38.34375 26.777344 40.5625 35.417969 39.1875 40.554688 C 38.660156 42.515625 37.613281 43.992188 36.152344 44.824219 C 35.253906 45.335938 34.234375 45.597656 33.117188 45.597656 Z M 14.878906 6 C 14.390625 6 13.984375 6.097656 13.632812 6.296875 C 13.015625 6.652344 12.582031 7.355469 12.289062 8.375 C 11.175781 12.226562 12.625 19.175781 17.574219 27.640625 C 23.023438 36.964844 29.648438 41.996094 33.117188 41.996094 C 33.605469 41.996094 34.015625 41.898438 34.367188 41.699219 C 34.984375 41.347656 35.425781 40.644531 35.707031 39.625 C 36.75 35.847656 35.371094 28.824219 30.421875 20.359375 C 24.972656 11.03125 18.347656 6 14.878906 6 Z M 14.878906 6 "/>
<path style=" stroke:none;fill-rule:nonzero;fill:rgb(54.509807%,71.764708%,94.117647%);fill-opacity:1;" d="M 28.199219 24 C 28.199219 26.320312 26.320312 28.199219 24 28.199219 C 21.679688 28.199219 19.800781 26.320312 19.800781 24 C 19.800781 21.679688 21.679688 19.800781 24 19.800781 C 26.320312 19.800781 28.199219 21.679688 28.199219 24 Z M 28.199219 24 "/>
<path style=" stroke:none;fill-rule:nonzero;fill:rgb(30.588236%,47.843137%,70.980394%);fill-opacity:1;" d="M 24 28.800781 C 21.351562 28.800781 19.199219 26.648438 19.199219 24 C 19.199219 21.351562 21.351562 19.199219 24 19.199219 C 26.648438 19.199219 28.800781 21.351562 28.800781 24 C 28.800781 26.648438 26.648438 28.800781 24 28.800781 Z M 24 20.398438 C 22.015625 20.398438 20.398438 22.015625 20.398438 24 C 20.398438 25.984375 22.015625 27.601562 24 27.601562 C 25.984375 27.601562 27.601562 25.984375 27.601562 24 C 27.601562 22.015625 25.984375 20.398438 24 20.398438 Z M 24 20.398438 "/>
<path style=" stroke:none;fill-rule:nonzero;fill:rgb(54.509807%,71.764708%,94.117647%);fill-opacity:1;" d="M 24 33.679688 C 11.214844 33.679688 1.199219 29.429688 1.199219 24 C 1.199219 18.570312 11.214844 14.320312 24 14.320312 C 36.785156 14.320312 46.800781 18.570312 46.800781 24 C 46.800781 29.429688 36.785156 33.679688 24 33.679688 Z M 24 15.519531 C 12.292969 15.519531 2.398438 19.402344 2.398438 24 C 2.398438 28.597656 12.292969 32.480469 24 32.480469 C 35.707031 32.480469 45.601562 28.597656 45.601562 24 C 45.601562 19.402344 35.707031 15.519531 24 15.519531 Z M 24 15.519531 "/>
<path style=" stroke:none;fill-rule:nonzero;fill:rgb(54.509807%,71.764708%,94.117647%);fill-opacity:1;" d="M 14.882812 44.398438 C 13.976562 44.398438 13.15625 44.195312 12.441406 43.785156 C 11.246094 43.105469 10.414062 41.914062 9.96875 40.246094 C 8.671875 35.398438 10.84375 27.117188 15.5 19.148438 C 20.855469 9.996094 28.097656 3.605469 33.117188 3.605469 C 34.023438 3.605469 34.84375 3.808594 35.558594 4.21875 C 36.75 4.898438 37.582031 6.089844 38.03125 7.753906 C 39.328125 12.597656 37.15625 20.878906 32.496094 28.851562 C 27.144531 38.007812 19.902344 44.398438 14.882812 44.398438 Z M 33.117188 4.804688 C 28.578125 4.804688 21.605469 11.089844 16.539062 19.753906 C 12.105469 27.34375 9.929688 35.453125 11.128906 39.933594 C 11.488281 41.28125 12.132812 42.226562 13.039062 42.746094 C 13.570312 43.046875 14.1875 43.199219 14.882812 43.199219 C 19.421875 43.199219 26.394531 36.910156 31.457031 28.246094 C 35.894531 20.65625 38.070312 12.542969 36.867188 8.066406 C 36.507812 6.71875 35.867188 5.777344 34.960938 5.257812 C 34.429688 4.957031 33.8125 4.804688 33.117188 4.804688 Z M 33.117188 4.804688 "/>
<path style=" stroke:none;fill-rule:nonzero;fill:rgb(54.509807%,71.764708%,94.117647%);fill-opacity:1;" d="M 33.117188 44.394531 C 28.09375 44.394531 20.851562 38.003906 15.5 28.851562 C 10.84375 20.882812 8.671875 12.601562 9.96875 7.753906 C 10.414062 6.085938 11.246094 4.894531 12.445312 4.214844 C 13.15625 3.804688 13.976562 3.601562 14.878906 3.601562 C 19.902344 3.601562 27.144531 9.992188 32.496094 19.148438 C 37.15625 27.117188 39.324219 35.398438 38.027344 40.246094 C 37.582031 41.914062 36.75 43.101562 35.554688 43.78125 C 34.84375 44.191406 34.023438 44.394531 33.117188 44.394531 Z M 14.878906 4.800781 C 14.1875 4.800781 13.566406 4.953125 13.039062 5.253906 C 12.128906 5.773438 11.488281 6.71875 11.128906 8.066406 C 9.929688 12.546875 12.101562 20.65625 16.539062 28.246094 C 21.601562 36.910156 28.574219 43.195312 33.117188 43.195312 C 33.8125 43.195312 34.433594 43.042969 34.960938 42.742188 C 35.867188 42.222656 36.507812 41.28125 36.867188 39.933594 C 38.070312 35.453125 35.894531 27.34375 31.460938 19.753906 C 26.394531 11.089844 19.425781 4.800781 14.878906 4.800781 Z M 14.878906 4.800781 "/>
</g>
</svg>
