<?xml version="1.0" ?><!DOCTYPE svg  PUBLIC '-//W3C//DTD SVG 1.1//EN'  'http://www.w3.org/Graphics/SVG/1.1/DTD/svg11.dtd'><svg enable-background="new 0 0 256 256" version="1.1" viewBox="0 0 256 256" xml:space="preserve" xmlns="http://www.w3.org/2000/svg" xmlns:xlink="http://www.w3.org/1999/xlink"><g id="Instagram"/><g id="LinkedIn"/><g id="Twitter"/><g id="Facebok"/><g id="bg"/><g id="adaption_layer"/><g id="block"/><g id="_x33_D_LAYER_copy"><g><g><path d="M243.7,246H12.3c-3.3,0-6-2.7-6-6V16c0-3.3,2.7-6,6-6h231.4c3.3,0,6,2.7,6,6v224     C249.7,243.3,247,246,243.7,246z" fill="#BA2025"/><path d="M243.7,228.5H12.3c-3.3,0-6-2.7-6-6V240c0,3.3,2.7,6,6,6h231.4c3.3,0,6-2.7,6-6v-17.5     C249.7,225.8,247,228.5,243.7,228.5z" opacity="0.3"/></g><g><g opacity="0.7"><polygon fill="#CCCCCC" points="152.1,116 152.1,123.7 116.4,103.2 116.4,95.5     "/><g enable-background="new    "><defs><path d="M192.5,118.6v7.7c0,0.2,0,0.3,0,0.5v-7.7        C192.5,119,192.5,118.8,192.5,118.6z" enable-background="new    " id="SVGID_1_"/></defs><use fill="#CCCCCC" overflow="visible" xlink:href="#SVGID_1_"/><clipPath id="SVGID_2_"><use overflow="visible" xlink:href="#SVGID_1_"/></clipPath><path clip-path="url(#SVGID_2_)" d="M192.5,118.6v7.7c0,0.2,0,0.3,0,0.5v-7.7       C192.5,119,192.5,118.8,192.5,118.6" fill="#CCCCCC"/></g><g enable-background="new    "><defs><path d="M192.5,119.1v7.7c0,10,0,20.6-2.3,30.3c-1.6,6.8-7.2,11.8-13.9,12.6        c-15,1.7-30.1,1.8-45.2,1.8c-1,0-2.1,0-3.1,0c-1,0-2.1,0-3.1,0c-15.1,0-30.2-0.1-45.2-1.8c-6.8-0.8-12.4-5.8-13.9-12.6        c-2.2-9.7-2.2-20.3-2.2-30.3l0-7.7c0,10,0,20.6,2.2,30.3c1.6,6.8,7.2,11.8,13.9,12.6c15,1.7,30.1,1.8,45.2,1.8        c1,0,2.1,0,3.1,0c1,0,2.1,0,3.1,0c15.1,0,30.3-0.1,45.2-1.8c6.7-0.8,12.4-5.8,13.9-12.6C192.5,139.7,192.5,129.1,192.5,119.1z        " enable-background="new    " id="SVGID_3_"/></defs><use fill="#CCCCCC" overflow="visible" xlink:href="#SVGID_3_"/><clipPath id="SVGID_4_"><use overflow="visible" xlink:href="#SVGID_3_"/></clipPath><path clip-path="url(#SVGID_4_)" d="M192.5,119.1v7.7c0,10,0,20.6-2.3,30.3c-1.6,6.8-7.2,11.8-13.9,12.6       c-15,1.7-30.1,1.8-45.2,1.8c-1,0-2.1,0-3.1,0c-1,0-2.1,0-3.1,0c-15.1,0-30.2-0.1-45.2-1.8c-6.8-0.8-12.4-5.8-13.9-12.6       c-2.2-9.7-2.2-20.3-2.2-30.3v-7.7c0,10,0,20.6,2.2,30.3c1.6,6.8,7.2,11.8,13.9,12.6c15,1.7,30.1,1.8,45.2,1.8c1,0,2.1,0,3.1,0       c1,0,2.1,0,3.1,0c15.1,0,30.3-0.1,45.2-1.8c6.7-0.8,12.4-5.8,13.9-12.6C192.5,139.7,192.5,129.1,192.5,119.1" fill="#CCCCCC"/></g></g><g><path d="M190.3,88.9c2.3,9.7,2.2,20.3,2.2,30.3      s0,20.6-2.3,30.3c-1.6,6.8-7.2,11.8-13.9,12.6c-15,1.7-30.1,1.8-45.2,1.8c-1,0-2.1,0-3.1,0c-1,0-2.1,0-3.1,0      c-15.1,0-30.2-0.1-45.2-1.8c-6.8-0.8-12.4-5.8-13.9-12.6c-2.2-9.7-2.2-20.3-2.2-30.3s0-20.6,2.3-30.3C67.3,82.1,73,77,79.7,76.3      c16-1.8,32.2-1.8,48.3-1.8c16.1,0,32.3,0,48.3,1.8C183.1,77,188.7,82.1,190.3,88.9z M116.4,136.4l35.7-20.5l-35.7-20.5V136.4" fill="#FCFCFC" stroke="#FDFDFE" stroke-miterlimit="10" stroke-width="0.2835"/></g></g></g></g><g id="Grid"/></svg>