<?xml version="1.0" ?><!DOCTYPE svg  PUBLIC '-//W3C//DTD SVG 1.1//EN'  'http://www.w3.org/Graphics/SVG/1.1/DTD/svg11.dtd'><svg enable-background="new 0 0 256 256" version="1.1" viewBox="0 0 256 256" xml:space="preserve" xmlns="http://www.w3.org/2000/svg" xmlns:xlink="http://www.w3.org/1999/xlink"><g id="LinkedIn"><g><g><path d="M243.7,246H12.3c-3.3,0-6-2.7-6-6V16c0-3.3,2.7-6,6-6h231.4c3.3,0,6,2.7,6,6v224     C249.7,243.3,247,246,243.7,246z" fill="#0073B2"/><path d="M243.7,228.5H12.3c-3.3,0-6-2.7-6-6V240c0,3.3,2.7,6,6,6h231.4c3.3,0,6-2.7,6-6v-17.5     C249.7,225.8,247,228.5,243.7,228.5z" opacity="0.3"/></g><g><g opacity="0.7"><path d="M109.7,121.9c0-11.7,0-21.2-0.2-23.8v7.3c0.1,2.5,0.2,12.1,0.2,23.8V121.9z" fill="#CCCCCC"/><path d="M162.3,142.1v-7.3c0-10.6-3.7-17.8-13-17.8c-7.1,0-11.3,4.9-13.2,9.6c-0.7,1.7-0.8,4-0.8,6.4v7.3      c0-2.3,0.2-4.7,0.8-6.4c1.9-4.7,6.1-9.6,13.2-9.6c4.7,0,7.9,1.8,10,4.9c1,1.6,1.8,3.5,2.3,5.6c0.1,0.5,0.2,1.1,0.3,1.7      C162.2,138.2,162.3,140.1,162.3,142.1L162.3,142.1z" fill="#CCCCCC"/><rect fill="#CCCCCC" height="7.3" width="25.7" x="109.6" y="176.9"/><rect fill="#CCCCCC" height="7.3" width="25.7" x="162.3" y="176.9"/><path d="M82.4,85h-0.2c-3.2,0-6-0.9-8.3-2.3c-0.7-0.5-1.4-1-2.1-1.7c-0.6-0.6-1.2-1.3-1.6-2      c-0.7-1.1-1.3-2.3-1.6-3.6c-0.1-0.4-0.2-0.9-0.3-1.3c-0.2-0.9-0.3-1.8-0.3-2.8v0v7.3c0,7.6,5.6,13.6,14.2,13.6h0.2      c9,0,14.5-6,14.5-13.6v-7.3C96.9,78.9,91.3,85,82.4,85z" fill="#CCCCCC"/><rect fill="#CCCCCC" height="7.3" width="25.7" x="68" y="175"/></g><g><path d="M158.4,96.3c16.9,0,29.6,11.2,29.6,35.4      v45.1h-25.7v-42.1c0-10.6-3.7-17.8-13-17.8c-7.1,0-11.3,4.9-13.2,9.6c-0.7,1.7-0.8,4-0.8,6.4v44h-25.7c0-3.6,0.3-71.3,0-78.7      h25.7v11.1C138.7,104,144.8,96.3,158.4,96.3z" fill="#FCFCFC" stroke="#FFFFFF" stroke-miterlimit="10" stroke-width="0.2835"/><path d="M82.5,57.8c8.8,0,14.2,5.9,14.4,13.6c0,7.6-5.6,13.6-14.5,13.6h-0.2c-8.6,0-14.2-6-14.2-13.6      C68,63.7,73.7,57.8,82.5,57.8z" fill="#FCFCFC"/><rect fill="#FCFCFC" height="78.7" width="25.7" x="68" y="96.3"/></g></g></g></g><g id="Twitter"/><g id="Facebok"/><g id="bg"/><g id="adaption_layer"/><g id="block"/><g id="Grid"/></svg>