<?xml version="1.0" ?><!DOCTYPE svg  PUBLIC '-//W3C//DTD SVG 1.1//EN'  'http://www.w3.org/Graphics/SVG/1.1/DTD/svg11.dtd'><svg enable-background="new 0 0 256 256" version="1.1" viewBox="0 0 256 256" xml:space="preserve" xmlns="http://www.w3.org/2000/svg" xmlns:xlink="http://www.w3.org/1999/xlink"><g id="Facebok"/><g id="bg"/><g id="adaption_layer"/><g id="block"/><g id="twitter_bird"><g><g><path d="M243.7,246H12.3c-3.3,0-6-2.7-6-6V16c0-3.3,2.7-6,6-6h231.4c3.3,0,6,2.7,6,6v224     C249.7,243.3,247,246,243.7,246z" fill="#00AFD8"/><path d="M243.7,228.5H12.3c-3.3,0-6-2.7-6-6V240c0,3.3,2.7,6,6,6h231.4c3.3,0,6-2.7,6-6v-17.5     C249.7,225.8,247,228.5,243.7,228.5z" opacity="0.3"/></g><g><g opacity="0.7"><path d="M192.5,67.1v-7.6c0,2-3.5,7.8-6.5,11c-1.5,1.7-2.3,2.8-2.3,3.4v7.6c0-0.6,0.8-1.7,2.3-3.4      C189,74.8,192.5,69,192.5,67.1z" fill="#CCCCCC"/><path d="M195.5,72.6c-0.6,1-3.6,4.6-6.9,7.9c-5.5,5.7-5.8,6.3-5.8,11c0,7.3-3.3,22.5-6.7,30.9      c-6.2,15.6-19.5,31.8-32.7,39.9c-12,7.4-26.6,11.2-41.1,11.2c-8,0-16-1.2-23.4-3.5c-7-2.3-19-8-19-9.1v7.6c0,1,12,6.8,19,9.1      c7.5,2.4,15.4,3.5,23.4,3.5c14.5,0,29-3.8,41.1-11.2c13.3-8.1,26.5-24.3,32.7-39.9c3.3-8.3,6.7-23.6,6.7-30.9      c0-4.7,0.3-5.4,5.8-11c3.2-3.3,6.3-6.9,6.9-7.9c0.3-0.6,0.5-1,0.5-1.2v-7.6C196,71.6,195.8,72,195.5,72.6z" fill="#CCCCCC"/><path d="M125.6,89.7C125.6,89.7,125.6,89.7,125.6,89.7c0,0.1,0,0.1,0,0.2v0v-7.6c0-0.1,0-0.1,0-0.1c0,0,0,0,0,0      v0c0,0,0,0,0,0L125.6,89.7z" fill="#CCCCCC"/><path d="M125.7,90.8C125.7,90.8,125.7,90.8,125.7,90.8c0,0.2,0,0.5,0.1,0.8v0v-7.6c0-0.1,0-0.3,0-0.4      c0-0.1,0-0.2,0-0.4c0-0.1,0-0.2,0-0.3v7.6C125.7,90.6,125.7,90.7,125.7,90.8L125.7,90.8z" fill="#CCCCCC"/><path d="M126,94.6c0,0.2,0,0.3,0,0.5c0,0.1,0,0.1,0,0.2v0c0,0,0,0,0,0c0,0,0,0.1,0,0.1v0c0,0,0,0,0,0      c0,0,0,0,0,0.1c0,0,0,0,0,0.1c0,0,0,0,0,0v0c0,0,0,0,0,0l0.3,5v-7.6l-0.3-5c0-0.7-0.1-1.4-0.1-2v7.6c0,0,0,0,0,0.1V94.6z" fill="#CCCCCC"/><path d="M74.9,108.2v-7.6c0-0.6-0.8-1.7-2.3-3.4c-5.1-5.4-7.7-12.6-7.7-20.1v7.6c0,7.6,2.7,14.8,7.7,20.1      C74.1,106.5,74.9,107.6,74.9,108.2z" fill="#CCCCCC"/><path d="M81.2,133l4.8,2.4v-7.6l-4.8-2.4c-5.7-3-10.9-8-13.5-13.2c-1.6-3.3-3.7-10.9-3.7-13.2v7.6      c0,2.3,2,9.9,3.7,13.2C70.3,125,75.5,130,81.2,133z" fill="#CCCCCC"/><path d="M75.2,130.1c-0.1-0.5-0.2-0.9-0.2-1.2v7.6c0,0.3,0.1,0.7,0.2,1.2c2,6.7,9.7,13.8,18.4,16.9l6.1,2.2v-7.6      l-6.1-2.2C85,143.9,77.2,136.8,75.2,130.1z" fill="#CCCCCC"/></g><path d="M195.6,71.1c0.6,0,0.4,0.5-0.1,1.5     c-0.6,1-3.6,4.6-6.9,7.9c-5.5,5.7-5.8,6.3-5.8,11c0,7.3-3.3,22.5-6.7,30.9c-6.2,15.6-19.5,31.8-32.7,39.9     c-12,7.4-26.6,11.2-41.1,11.2c-8,0-16-1.2-23.4-3.5c-7-2.3-19-8-19-9.1c0-0.3,3.6-0.7,8.1-0.8c9.2-0.2,18.5-2.9,26.3-7.6l5.3-3.3     l-6.1-2.2c-8.6-3.1-16.4-10.2-18.4-16.9c-0.6-2.2-0.4-2.3,5.1-2.3l5.7-0.1l-4.8-2.4c-5.7-3-10.9-8-13.5-13.2     c-1.9-3.7-4.2-13.1-3.5-13.8c1-0.1,2.7,0.5,4.6,1.1c2.7,1,4.4,1.5,5.3,1.5c1.4,0,0.8-1.3-1.6-3.9c-7.4-7.8-9.6-19.4-6.1-30.5     l1.7-4.9l6.5,6.7c13.3,13.5,28.9,21.5,46.8,23.9l4.9,0.6l-0.3-5c-0.9-13.1,6.9-25,19.2-29.6c2.5-0.9,5.9-1.4,9.3-1.4     c2.8,0,5.6,0.3,7.8,1c2,0.6,5.7,2.7,8.4,4.5l4.8,3.4l5.3-1.7c3-0.9,6.9-2.5,8.7-3.5c1.3-0.7,2.6-1.2,3-1.2     c0.2,1.8-3.5,7.8-6.5,11.1c-2.4,2.7-3,3.9-1.5,3.9c1.1,0,3.4-0.7,6.9-2C193.8,71.5,195.1,71.1,195.6,71.1z" fill="#FCFCFC" stroke="#FFFFFF" stroke-miterlimit="10" stroke-width="0.2835"/></g></g></g><g id="Grid"/></svg>